<!DOCTYPE svg PUBLIC "-//W3C//DTD SVG 1.1//EN" "http://www.w3.org/Graphics/SVG/1.1/DTD/svg11.dtd">
<!-- Uploaded to: SVG Repo, www.svgrepo.com, Transformed by: SVG Repo Mixer Tools -->
<svg fill="" version="1.1" id="Layer_1" xmlns="http://www.w3.org/2000/svg" xmlns:xlink="http://www.w3.org/1999/xlink" width="800px" height="800px" viewBox="-25.6 -25.6 307.20 307.20" enable-background="new 0 0 256 249" xml:space="preserve" stroke="" transform="rotate(0)matrix(-1, 0, 0, 1, 0, 0)">
<g id="SVGRepo_bgCarrier" stroke-width="0" transform="translate(0,0), scale(1)">
<path transform="translate(-25.6, -25.6), scale(9.6)" d="M16,25.71557508967817C20.224431612273758,25.721036930882367,25.395947540038026,28.896214221229876,28.04527923376925,25.60578965058881C30.694961301375848,22.31492992159775,26.491988541622597,17.93878846576958,25.583898157300247,13.812537786376437C24.658080177554076,9.605735100350024,26.43674062191338,4.179643422935193,22.816277964601543,1.8458529615203663C19.03769465456465,-0.5898638297620415,14.093998683820383,1.696768078069367,10.157909500021638,3.8687740760829463C6.543055053514995,5.863516871057161,3.804848967408139,8.987449187629716,2.676952151413772,12.959101269572464C1.4617453793171549,17.238197050274223,0.7807146846928434,22.498328453606394,3.993714777818605,25.57469296402172C7.035221567000875,28.486857070224683,11.789129105564303,25.710130781362235,16,25.71557508967817" fill="#FFB400" strokewidth="0"/>
</g>
<g id="SVGRepo_tracerCarrier" stroke-linecap="round" stroke-linejoin="round" stroke="#CCCCCC" stroke-width="5.12"/>
<g id="SVGRepo_iconCarrier"> <path d="M47.522,170.287l11.172,76.681h138.612l11.172-76.681H47.522z M128,215.249c-5.748,0-10.407-3.063-10.407-6.84 s4.659-6.84,10.407-6.84c5.748,0,10.407,3.062,10.407,6.84S133.748,215.249,128,215.249z M233.315,233.054h-26.028l10.292-70.639 H38.421l10.292,70.639H22.685c-14.848,0-24.85-15.195-18.978-28.834l36.809-85.489c7.149-16.605,23.493-27.362,41.571-27.362h14.486 l22.885,34.061l4.665-22.254l-7.809-11.807h23.491l-7.81,11.807l4.655,22.098l22.78-33.905h14.486 c18.078,0,34.422,10.757,41.571,27.362l36.808,85.489C258.165,217.858,248.164,233.054,233.315,233.054z M128,2.033 c22.496,0,40.733,18.237,40.733,40.733S150.496,83.498,128,83.498S87.267,65.261,87.267,42.765S105.504,2.033,128,2.033z"/> </g>
</svg>